<svg xmlns="http://www.w3.org/2000/svg" xmlns:xlink="http://www.w3.org/1999/xlink" xmlns:lucid="lucid" width="958" height="738.58"><g transform="translate(-39.50004999999996 1126.7499500000001)" lucid:page-tab-id="0_0"><path d="M-500-1500h2000v3000H-500z" fill="#fff"/><path d="M90.5-958.56l-7.34-6.7-3.66 7 5.62.67 5.38-.96zM84.4-949.86l26.6 1.68 26.58-1.68-26.6-14.64-26.57 14.64zM128.97-958.56l6.46 1.14 7.06-.83-6.3-13.22-7.23 12.9z" fill="#3c4929"/><path d="M102.28-910.67l15.2-3.54 14.67 3.4-15.2 14.38-14.67-14.25z" fill="#b7ca9d"/><path d="M103.97-959.9l-7.92-1.35-8.14-10.1 8.15-16.3 7.92 2.44v25.3z" fill="#759c3e"/><path d="M84.4-977.94v-9.36l26.58-13.2 7.06 14.76-14.08 5.64-7.9-2.4v21l14.92-3 7.97 34.8-7.97 49.2-7.97-3.96v-11.16l-6.93-2.88v-52.56l-11.68 1.2v-9.36l-4.9.96v-17.64l4.9-2.04z" fill="#4b612c"/><path d="M124.77-993.66l5.6 2.76 7.22 3.6v9.36l4.9 2.04v17.64l-4.9-.96v9.36l-6.28-.6-5.4-.6V-940.5h11.67v9.6l-5.43.48v9.72l-13.2 2.64v11.16l13.17-3.84.03 9.84-13.2 5.28v11.16L111-880.5v-84l7.03 1.44v-17.04l-7.03-2.4v-18l13.77 6.84z" fill="#759c3e"/><path d="M118.95-985.35L111-988.5l-14.94 5.93 7.92 2.46 14.97-5.25z" fill="#3c4929"/><path d="M118.03-982.56h7.9v21.02l-7.9-1.57v-19.46z" fill="#4b612c"/><path d="M96.06-982.57L111-988.5l3.13 1.25 4.8 1.9 7 2.78-7.9 2.46-7.03-2.47-7.03 2.46-7.9-2.47z" fill="#3c4929"/><use xlink:href="#a" transform="matrix(1,0,0,1,79.50004999999996,-880.4999500000001) translate(3.7222222222222214 17.77777777777778)"/><use xlink:href="#b" transform="matrix(1,0,0,1,79.50004999999996,-880.4999500000001) translate(-29.518518518518526 44.44444444444444)"/><use xlink:href="#c" transform="matrix(1,0,0,1,79.50004999999996,-880.4999500000001) translate(8.10493827160494 71.11111111111111)"/><path d="M837-834.5a6 6 0 0 1 6-6h148a6 6 0 0 1 6 6v108a6 6 0 0 1-6 6H843a6 6 0 0 1-6-6z" stroke="#1071e5" fill="#cfe4ff"/><use xlink:href="#d" transform="matrix(1,0,0,1,849.00005,-828.4999500000001) translate(22.999999999999993 53.77777777777778)"/><path d="M325-579h108.5v108.5H325V-579z" stroke="#fff" stroke-opacity="0" stroke-width="2" fill="#d6242d"/><path d="M395.64-506.27l2.05-2.05 17.3 17.3-2.06 2.04-17.3-17.3zM343.5-558.44l2.04-2.04 19.18 19.18-2.03 2.04-19.2-19.18zM347.84-495.3l10.13-10.14 2.05 2.04-10.13 10.13-2.06-2.04zM398.48-545.96l10.13-10.13 2.05 2.06-10.13 10.13-2.04-2.06z" stroke="#fff" stroke-opacity="0" stroke-width="1.41" fill="#fff"/><path d="M412.47-526.17c-.3-6.78-2.26-12.5-6.24-18l-2.34 1.72c3.6 4.98 5.4 10.13 5.68 16.28h-2.9v2.88h2.9c-.25 6.2-2.06 11.38-5.7 16.4l2.35 1.68c4-5.53 6-11.25 6.24-18.07h2.9v-2.9zM361.48-549.3c5-3.64 10.15-5.43 16.32-5.7v2.8h2.9v-2.8c6.17.27 11.32 2.06 16.32 5.7l1.76-2.36c-5.55-4-11.25-5.98-18.08-6.23v-3h-2.9v3c-6.83.26-12.53 2.24-18.08 6.24zM397.02-500.04c-5 3.6-10.15 5.4-16.32 5.7v-2.9h-2.9v2.9c-6.17-.3-11.32-2.1-16.32-5.7l-1.76 2.34c5.55 4 11.25 5.98 18.08 6.24v2.9h2.9v-2.9c6.83-.26 12.53-2.24 18.08-6.24zM352.27-505.22l2.34-1.7c-3.62-5-5.42-10.2-5.68-16.38h2.9v-2.9h-2.9c.3-6.14 2.1-11.3 5.7-16.28l-2.35-1.7c-3.98 5.48-5.95 11.2-6.24 18h-2.9v2.88h2.9c.26 6.82 2.24 12.55 6.24 18.08zM386.34-543.92c-2.08-1.72-4.4-2.54-7.1-2.5-5.57 0-10.12 3.94-10.12 8.83v7.08h-2.9c-.8 0-1.44.66-1.44 1.44v20.27c0 .38.15.74.44 1 .26.28.6.44 1 .44h26.05c.8 0 1.45-.66 1.45-1.45v-20.28c0-.4-.15-.7-.4-.97-.3-.32-.64-.47-1.05-.47h-2.9v-7.07c-.02-2.53-1.06-4.72-3.03-6.32zm-14.32 6.33c0-3.27 3.27-5.93 7.23-5.93 1.97-.04 3.68.54 5.2 1.8 1.3 1.05 2 2.46 2.06 4.14v7.08h-14.45zm18.8 14.34h-4.34v2.9h4.34v2.88h-4.34v2.9h4.34v4.33h-23.14v-17.38h23.14z" stroke="#fff" stroke-opacity="0" stroke-width="2" fill="#fff"/><path d="M377.8-517.14v4h2.9v-4c1.22-.44 2.1-1.3 2.54-2.54.8-2.2-.34-4.63-2.54-5.43-2.2-.8-4.64.33-5.44 2.53-.8 2.2.34 4.63 2.54 5.43zm1.45-5.52c.87-.02 1.57.68 1.58 1.55 0 .84-.7 1.55-1.56 1.56-.85 0-1.56-.68-1.57-1.55v-.04c0-.84.7-1.52 1.55-1.52z" stroke="#fff" stroke-opacity="0" stroke-width="2" fill="#fff"/><use xlink:href="#a" transform="matrix(1,0,0,1,295.00005,-461.4999500000001) translate(56.72222222222222 17.77777777777778)"/><use xlink:href="#b" transform="matrix(1,0,0,1,295.00005,-461.4999500000001) translate(23.481481481481474 44.44444444444444)"/><use xlink:href="#e" transform="matrix(1,0,0,1,295.00005,-461.4999500000001) translate(46.876543209876544 71.11111111111111)"/><path d="M619.5-574.75H728v108.5H619.5v-108.5z" stroke="#fff" stroke-opacity="0" stroke-width="2" fill="#d6242d"/><path d="M690.14-502.02l2.05-2.05 17.3 17.3-2.06 2.04-17.3-17.3zM638-554.2l2.04-2.03 19.18 19.18-2.03 2.04-19.2-19.2zM642.34-491.06l10.13-10.13 2.05 2.05-10.13 10.13-2.06-2.04zM692.98-541.7l10.13-10.14 2.05 2.05-10.13 10.14-2.04-2.05z" stroke="#fff" stroke-opacity="0" stroke-width="1.41" fill="#fff"/><path d="M706.97-521.92c-.3-6.78-2.26-12.5-6.24-18l-2.34 1.72c3.6 4.98 5.4 10.13 5.68 16.28h-2.9v2.88h2.9c-.25 6.2-2.06 11.37-5.7 16.4l2.35 1.67c4-5.53 6-11.25 6.24-18.07h2.9v-2.92zM655.98-545.06c5-3.63 10.15-5.42 16.32-5.7v2.8h2.9v-2.8c6.17.28 11.32 2.07 16.32 5.7l1.76-2.35c-5.55-4-11.25-6-18.08-6.24v-3h-2.9v3c-6.83.25-12.53 2.23-18.08 6.23zM691.52-495.8c-5 3.62-10.15 5.42-16.32 5.7v-2.9h-2.9v2.9c-6.17-.28-11.32-2.08-16.32-5.7l-1.76 2.35c5.55 4 11.25 5.98 18.08 6.24v2.88h2.9v-2.9c6.83-.25 12.53-2.23 18.08-6.23zM646.77-500.97l2.34-1.7c-3.62-5-5.42-10.2-5.68-16.38h2.9v-2.9h-2.9c.3-6.14 2.1-11.3 5.7-16.28l-2.35-1.7c-3.98 5.48-5.95 11.2-6.24 18h-2.9v2.88h2.9c.25 6.82 2.24 12.55 6.24 18.08zM680.84-539.67c-2.08-1.72-4.4-2.54-7.1-2.5-5.57 0-10.12 3.94-10.12 8.83v7.07h-2.9c-.8 0-1.44.66-1.44 1.44v20.27c0 .4.15.75.44 1.02.26.27.6.43 1 .43h26.05c.8 0 1.45-.67 1.45-1.46v-20.27c0-.4-.15-.7-.4-.97-.3-.32-.65-.47-1.05-.47h-2.9v-7.07c-.02-2.54-1.06-4.73-3.03-6.33zm-14.32 6.33c0-3.28 3.27-5.94 7.23-5.94 1.97-.04 3.67.54 5.2 1.8 1.3 1.05 2 2.46 2.06 4.14v7.07h-14.45zm18.8 14.33h-4.34v2.88h4.34v2.9h-4.34v2.88h4.34v4.34h-23.14v-17.38h23.14z" stroke="#fff" stroke-opacity="0" stroke-width="2" fill="#fff"/><path d="M672.3-512.9v4h2.9v-4c1.22-.43 2.1-1.3 2.54-2.53.8-2.2-.34-4.63-2.54-5.43-2.2-.8-4.64.34-5.44 2.54-.8 2.2.34 4.63 2.54 5.43zm1.45-5.5c.87-.03 1.57.67 1.58 1.54 0 .85-.7 1.56-1.56 1.57-.85 0-1.56-.67-1.57-1.54v-.05c0-.83.7-1.5 1.55-1.5z" stroke="#fff" stroke-opacity="0" stroke-width="2" fill="#fff"/><use xlink:href="#f" transform="matrix(1,0,0,1,589.50005,-457.2499500000001) translate(39.49999999999999 17.77777777777778)"/><use xlink:href="#e" transform="matrix(1,0,0,1,589.50005,-457.2499500000001) translate(46.876543209876544 44.44444444444444)"/><path d="M90.5-548.56l-7.34-6.7-3.66 7 5.62.67 5.38-.96zM84.4-539.86l26.6 1.68 26.58-1.68-26.6-14.64-26.57 14.64zM128.97-548.56l6.46 1.14 7.06-.83-6.3-13.22-7.23 12.9z" fill="#3c4929"/><path d="M102.28-500.67l15.2-3.54 14.67 3.4-15.2 14.38-14.67-14.25z" fill="#b7ca9d"/><path d="M103.97-549.9l-7.92-1.35-8.14-10.1 8.15-16.3 7.92 2.44v25.3z" fill="#759c3e"/><path d="M84.4-567.94v-9.36l26.58-13.2 7.06 14.76-14.08 5.64-7.9-2.4v21l14.92-3 7.97 34.8-7.97 49.2-7.97-3.96v-11.16l-6.93-2.88v-52.56l-11.68 1.2v-9.36l-4.9.96v-17.64l4.9-2.04z" fill="#4b612c"/><path d="M124.77-583.66l5.6 2.76 7.22 3.6v9.36l4.9 2.04v17.64l-4.9-.96v9.36l-6.28-.6-5.4-.6V-530.5h11.67v9.6l-5.43.48v9.72l-13.2 2.64v11.16l13.17-3.84.03 9.84-13.2 5.28v11.16L111-470.5v-84l7.03 1.44v-17.04l-7.03-2.4v-18l13.77 6.84z" fill="#759c3e"/><path d="M118.95-575.35L111-578.5l-14.94 5.93 7.92 2.46 14.97-5.25z" fill="#3c4929"/><path d="M118.03-572.56h7.9v21.02l-7.9-1.57v-19.46z" fill="#4b612c"/><path d="M96.06-572.57L111-578.5l3.13 1.25 4.8 1.9 7 2.78-7.9 2.46-7.03-2.47-7.03 2.46-7.9-2.47z" fill="#3c4929"/><path d="M97.5-590.5c0 9.94-8.06 18-18 18s-18-8.06-18-18 8.06-18 18-18 18 8.06 18 18z" fill="#5d646f"/><path d="M95.47-589.5H79.5v-17c8.84 0 16 7.16 16 16 0 .34 0 .67-.03 1z" fill="#4d9eff"/><use xlink:href="#g" transform="matrix(1,0,0,1,79.50004999999996,-470.4999500000001) translate(-19.055555555555557 17.77777777777778)"/><use xlink:href="#c" transform="matrix(1,0,0,1,79.50004999999996,-470.4999500000001) translate(8.10493827160494 44.44444444444444)"/><path d="M917-841.5v-227.13a6 6 0 0 0-6-6H744.38" stroke="#3a414a" fill="none"/><path d="M917.5-841h-1v-.5h1z" stroke="#3a414a" stroke-width=".05" fill="#3a414a"/><path d="M729.62-1074.63l14.26-4.63v9.27z" stroke="#3a414a" fill="#3a414a"/><path d="M619-1077.06H449.88M619-1077.06h.5" stroke="#3a414a" fill="none"/><path d="M435.12-1077.06l14.26-4.63v9.28z" stroke="#3a414a" fill="#3a414a"/><path d="M378.75-841v-13.5a6 6 0 0 1 6-6H733a6 6 0 0 1 6 6v68a6 6 0 0 0 6 6h75.12" stroke="#3a414a" fill="none"/><path d="M379.25-840.5h-1v-.5h1z" stroke="#3a414a" stroke-width=".05" fill="#3a414a"/><path d="M834.88-780.5l-14.26 4.63v-9.26z" stroke="#3a414a" fill="#3a414a"/><path d="M862.25-520.5H744.38" stroke="#3a414a" fill="none"/><path d="M862.75-520h-.5v-1h.5z" stroke="#3a414a" stroke-width=".05" fill="#3a414a"/><path d="M729.62-520.5l14.26-4.63v9.26z" stroke="#3a414a" fill="#3a414a"/><path d="M603.12-520.5H565.5a6 6 0 0 1-6-6v-253.75a6 6 0 0 0-6-6h-120" stroke="#3a414a" fill="none"/><path d="M617.88-520.5l-14.26 4.63v-9.26z" stroke="#3a414a" fill="#3a414a"/><path d="M433.5-785.75h-.5v-1h.5z" stroke="#3a414a" stroke-width=".05" fill="#3a414a"/><path d="M433.5-753.7h60a6 6 0 0 1 6 6v121.2a6 6 0 0 1-6 6H385.25a6 6 0 0 0-6 6v19.12" stroke="#3a414a" fill="none"/><path d="M433.5-753.2h-.5v-1h.5z" stroke="#3a414a" stroke-width=".05" fill="#3a414a"/><path d="M379.25-580.62l-4.63-14.26h9.26z" stroke="#3a414a" fill="#3a414a"/><path d="M153.97-528h71.07a6 6 0 0 0 6-6v-246.25a6 6 0 0 1 6-6h71.08" stroke="#3a414a" fill="none"/><path d="M139.2-528l14.27-4.64v9.27zM322.88-786.25l-14.26 4.63v-9.26z" stroke="#3a414a" fill="#3a414a"/><path d="M79.69-939.1h-34.2a6 6 0 0 0-6 6v266.6a6 6 0 0 0 6 6H105a6 6 0 0 1 6 6v47.62" stroke="#3a414a" fill="none"/><path d="M94.45-939.1l-14.27 4.64v-9.27zM111-592.12l-4.64-14.26h9.28z" stroke="#3a414a" fill="#3a414a"/><path d="M917-591.13v-112.5" stroke="#3a414a" fill="none"/><path d="M917-576.37l-4.63-14.26h9.26zM917-718.38l4.63 14.26h-9.26z" stroke="#3a414a" fill="#3a414a"/><path d="M324.5-840.5H433V-732H324.5v-108.5z" stroke="#000" stroke-opacity="0" fill="url(#h)"/><path d="M412.63-767.6c.93 0 1.7.76 1.7 1.73v15.23c0 .97-.77 1.7-1.7 1.7h-18c-.72 0-1.3-.36-1.57-.96l-25.5-55h-10.6c-.5 0-.9-.16-1.2-.53-.36-.3-.5-.75-.5-1.2v-15.23c0-.97.8-1.7 1.7-1.7h22.57c.64 0 1.2.36 1.5.96l25.34 55zM411-752.27v-11.95h-5.7c-.64 0-1.2-.37-1.5-.97l-25.34-55H358.6v11.93h10.04c.72 0 1.28.37 1.57.97l25.5 55zm-44.56-41.3l9.6 19.95c.22.44.22.97 0 1.4L365.6-749.9c-.28.6-.92.97-1.56.97h-19.15c-.57 0-1.14-.3-1.42-.82-.36-.45-.36-1.04-.15-1.64l20.08-42.17c.28-.6.85-.97 1.5-.97.7 0 1.27.38 1.56.97zm-3.5 41.3l9.7-20.6-7.7-16.06-17.44 36.66z" stroke="#000" stroke-opacity="0" fill="#fff"/><path d="M342.5-840.5c0 9.94-8.06 18-18 18s-18-8.06-18-18 8.06-18 18-18 18 8.06 18 18z" fill="#5d646f"/><path d="M340.47-839.5H324.5v-17c8.84 0 16 7.16 16 16 0 .34 0 .67-.03 1z" fill="#4d9eff"/><use xlink:href="#i" transform="matrix(1,0,0,1,294.50005,-722.9999500000001) translate(10.074999999999989 14.4)"/><use xlink:href="#j" transform="matrix(1,0,0,1,294.50005,-722.9999500000001) translate(60.07499999999999 14.4)"/><use xlink:href="#k" transform="matrix(1,0,0,1,294.50005,-722.9999500000001) translate(49.05 36)"/><path d="M328.5-1122.5h105v100h-105v-100z" stroke="#000" stroke-opacity="0" fill="url(#l)"/><path d="M413.8-1055.3c.88 0 1.64.7 1.64 1.58v14.04c0 .9-.76 1.58-1.65 1.58h-17.44c-.7 0-1.24-.34-1.5-.9l-24.67-50.7H359.9c-.48 0-.9-.14-1.17-.48-.34-.28-.48-.7-.48-1.1v-14.04c0-.9.76-1.58 1.65-1.58h21.84c.62 0 1.17.34 1.44.9l24.53 50.7zm-1.6 14.1v-11h-5.5c-.63 0-1.18-.35-1.45-.9l-24.52-50.7H361.5v11h9.72c.7 0 1.24.35 1.5.9l24.67 50.7zm-43.12-38.04l9.3 18.37c.2.4.2.9 0 1.3L368.26-1039c-.28.56-.9.9-1.52.9H348.2c-.54 0-1.1-.28-1.36-.76-.35-.4-.35-.96-.14-1.5l19.42-38.88c.28-.55.83-.9 1.45-.9.7 0 1.24.35 1.5.9zm-3.37 38.04l9.38-18.98-7.44-14.8-16.88 33.78z" stroke="#000" stroke-opacity="0" fill="#fff"/><g><use xlink:href="#i" transform="matrix(1,0,0,1,298.50004999999993,-1013.4999500000001) translate(8.074999999999989 14.4)"/><use xlink:href="#j" transform="matrix(1,0,0,1,298.50004999999993,-1013.4999500000001) translate(58.07499999999999 14.4)"/><use xlink:href="#m" transform="matrix(1,0,0,1,298.50004999999993,-1013.4999500000001) translate(42.05 36)"/></g><path d="M862.75-574.75h108.5v100h-108.5v-100z" stroke="#000" stroke-opacity="0" fill="url(#n)"/><path d="M950.88-507.55c.92 0 1.7.7 1.7 1.58v14.04c0 .9-.78 1.58-1.7 1.58h-18c-.72 0-1.3-.34-1.57-.9l-25.47-50.7h-10.6c-.5 0-.94-.14-1.22-.48-.35-.28-.5-.7-.5-1.1v-14.04c0-.9.8-1.58 1.72-1.58h22.56c.64 0 1.2.34 1.5.9l25.34 50.7zm-1.64 14.1v-11h-5.7c-.63 0-1.2-.35-1.5-.9l-25.32-50.7h-19.86v11h10.03c.7 0 1.27.35 1.56.9l25.48 50.7zM904.7-531.5l9.6 18.38c.2.4.2.9 0 1.3l-10.47 20.58c-.28.55-.92.9-1.56.9h-19.15c-.57 0-1.14-.3-1.42-.77-.36-.42-.36-.97-.15-1.52l20.08-38.87c.28-.54.85-.9 1.5-.9.7 0 1.27.36 1.56.9zm-3.5 38.05l9.68-18.98-7.7-14.8-17.43 33.78z" stroke="#000" stroke-opacity="0" fill="#fff"/><g><use xlink:href="#o" transform="matrix(1,0,0,1,832.75005,-465.7499500000001) translate(21.574999999999996 14.4)"/><use xlink:href="#p" transform="matrix(1,0,0,1,832.75005,-465.7499500000001) translate(99.475 14.4)"/><use xlink:href="#q" transform="matrix(1,0,0,1,832.75005,-465.7499500000001) translate(51.05 36)"/></g><path d="M619.5-1126.75H728v104.25H619.5v-104.25z" stroke="#000" stroke-opacity="0" fill="url(#r)"/><path d="M660.7-1062.2c-.3-.36-.54-.77-.54-1.18 0-.4.23-.82.53-1.1 2.3-2.24 3.72-5.98 3.72-10.14 0-4.17-1.42-7.9-3.73-10.14-.3-.3-.54-.7-.54-1.1 0-.42.23-.83.53-1.2.66-.57 1.7-.57 2.38 0 5 4.76 16.42 4.76 21.42 0 .6-.57 1.72-.57 2.4 0 .3.37.44.78.44 1.2 0 .4-.15.8-.45 1.1-2.4 2.23-3.74 5.97-3.74 10.13 0 4.17 1.34 7.9 3.73 10.14.3.3.44.7.44 1.12 0 .4-.15.82-.45 1.18-.38.3-.83.47-1.2.47-.45 0-.9-.18-1.2-.47-5-4.75-16.42-4.75-21.42 0-.68.58-1.72.58-2.4 0zm32.46 6.03c2.98-2.8 4.78-5.62 6.12-9.3l3.2 1.04c-1.48 4.16-3.57 7.32-6.93 10.55-6.05 5.68-13.96 8.55-21.88 8.55-7.9 0-15.82-2.87-21.87-8.56-3.13-2.97-5.15-6.08-6.8-10.53l3.22-1.05c1.5 3.98 3.2 6.67 5.97 9.3 10.74 10.2 28.2 10.2 38.96 0zm-44.94-27.6l-3.2-1.05c1.63-4.4 3.65-7.56 6.78-10.55 12.1-11.42 31.65-11.42 43.75 0 3.28 3.17 5.45 6.4 6.94 10.55l-3.22 1.05c-1.34-3.7-3.2-6.5-6.12-9.3-10.75-10.2-28.22-10.2-38.97 0-2.77 2.63-4.5 5.32-5.98 9.3zm60.62 14.24c-1.5 1.4-3.44 2.1-5.38 2.1s-3.88-.7-5.38-2.1c-1.5-1.35-2.23-3.16-2.23-5.1 0-1.93.74-3.74 2.24-5.1 1.4-1.34 3.34-2.1 5.36-2.1 2 0 3.96.76 5.38 2.1 2.98 2.82 2.98 7.4 0 10.2zm-59.43.06c-1.4 1.35-3.34 2.1-5.36 2.1-2 0-3.96-.75-5.38-2.1-2.98-2.8-2.98-7.38 0-10.25 1.42-1.35 3.37-2.1 5.38-2.1 2.02 0 3.96.75 5.38 2.1 2.98 2.87 2.98 7.44 0 10.25zm18.38-5.15c0 2.4-.38 4.68-1.12 6.73 2.24-.7 4.7-1.04 7.1-1.04 2.45 0 4.92.35 7.16 1.05-.75-2.04-1.2-4.32-1.2-6.72 0-2.4.45-4.7 1.2-6.74-4.48 1.4-9.78 1.4-14.26 0 .75 2.05 1.12 4.33 1.12 6.73zm-7.84 5.74l-2.84-1.82 1.65-2.34h-5.3v-3.17h5.3l-1.65-2.35 2.84-1.76 3.36 4.8c.37.52.37 1.23 0 1.8zm30.53 0l-2.84-1.82 1.65-2.34h-5.3v-3.17h5.3l-1.64-2.35 2.83-1.82 3.36 4.87c.37.52.37 1.23 0 1.75zm15.98-8.56c-.83-.76-1.87-1.17-3-1.17-1.1 0-2.16.4-2.98 1.16-.82.76-1.26 1.76-1.26 2.82 0 1.05.45 2.1 1.27 2.87 1.65 1.52 4.33 1.52 5.98 0 1.64-1.6 1.64-4.16 0-5.7zm-59.42 0c-.82-.76-1.87-1.17-3-1.17-1.1 0-2.15.4-2.98 1.16-1.64 1.6-1.64 4.1 0 5.7 1.57 1.5 4.4 1.5 5.98 0 1.64-1.6 1.64-4.12 0-5.7z" stroke="#000" stroke-opacity="0" fill="#fff"/><g><use xlink:href="#s" transform="matrix(1,0,0,1,589.50005,-1013.4999500000001) translate(21.599999999999994 14.4)"/><use xlink:href="#t" transform="matrix(1,0,0,1,589.50005,-1013.4999500000001) translate(92.55 14.4)"/><use xlink:href="#u" transform="matrix(1,0,0,1,589.50005,-1013.4999500000001) translate(25.049999999999997 36)"/><use xlink:href="#v" transform="matrix(1,0,0,1,589.50005,-1013.4999500000001) translate(84.05 36)"/></g><defs><path fill="#3a414a" d="M205 0l-28-72H64L36 0H1l101-248h38L239 0h-34zm-38-99l-47-123c-12 45-31 82-46 123h93" id="w"/><path fill="#3a414a" d="M135-143c-3-34-86-38-87 0 15 53 115 12 119 90S17 21 10-45l28-5c4 36 97 45 98 0-10-56-113-15-118-90-4-57 82-63 122-42 12 7 21 19 24 35" id="x"/><path fill="#3a414a" d="M100-194c63 0 86 42 84 106H49c0 40 14 67 53 68 26 1 43-12 49-29l28 8c-11 28-37 45-77 45C44 4 14-33 15-96c1-61 26-98 85-98zm52 81c6-60-76-77-97-28-3 7-6 17-6 28h103" id="y"/><path fill="#3a414a" d="M59-47c-2 24 18 29 38 22v24C64 9 27 4 27-40v-127H5v-23h24l9-43h21v43h35v23H59v120" id="z"/><g id="a"><use transform="matrix(0.06172839506172839,0,0,0.06172839506172839,0,0)" xlink:href="#w"/><use transform="matrix(0.06172839506172839,0,0,0.06172839506172839,14.814814814814813,0)" xlink:href="#x"/><use transform="matrix(0.06172839506172839,0,0,0.06172839506172839,25.925925925925924,0)" xlink:href="#x"/><use transform="matrix(0.06172839506172839,0,0,0.06172839506172839,37.03703703703704,0)" xlink:href="#y"/><use transform="matrix(0.06172839506172839,0,0,0.06172839506172839,49.382716049382715,0)" xlink:href="#z"/></g><path fill="#3a414a" d="M185-189c-5-48-123-54-124 2 14 75 158 14 163 119 3 78-121 87-175 55-17-10-28-26-33-46l33-7c5 56 141 63 141-1 0-78-155-14-162-118-5-82 145-84 179-34 5 7 8 16 11 25" id="A"/><path fill="#3a414a" d="M84 4C-5 8 30-112 23-190h32v120c0 31 7 50 39 49 72-2 45-101 50-169h31l1 190h-30c-1-10 1-25-2-33-11 22-28 36-60 37" id="B"/><path fill="#3a414a" d="M115-194c53 0 69 39 70 98 0 66-23 100-70 100C84 3 66-7 56-30L54 0H23l1-261h32v101c10-23 28-34 59-34zm-8 174c40 0 45-34 45-75 0-40-5-75-45-74-42 0-51 32-51 76 0 43 10 73 51 73" id="C"/><path fill="#3a414a" d="M96-169c-40 0-48 33-48 73s9 75 48 75c24 0 41-14 43-38l32 2c-6 37-31 61-74 61-59 0-76-41-82-99-10-93 101-131 147-64 4 7 5 14 7 22l-32 3c-4-21-16-35-41-35" id="D"/><path fill="#3a414a" d="M114-163C36-179 61-72 57 0H25l-1-190h30c1 12-1 29 2 39 6-27 23-49 58-41v29" id="E"/><path fill="#3a414a" d="M24-231v-30h32v30H24zM24 0v-190h32V0H24" id="F"/><path fill="#3a414a" d="M115-194c55 1 70 41 70 98S169 2 115 4C84 4 66-9 55-30l1 105H24l-1-265h31l2 30c10-21 28-34 59-34zm-8 174c40 0 45-34 45-75s-6-73-45-74c-42 0-51 32-51 76 0 43 10 73 51 73" id="G"/><path fill="#3a414a" d="M100-194c62-1 85 37 85 99 1 63-27 99-86 99S16-35 15-95c0-66 28-99 85-99zM99-20c44 1 53-31 53-75 0-43-8-75-51-75s-53 32-53 75 10 74 51 75" id="H"/><path fill="#3a414a" d="M117-194c89-4 53 116 60 194h-32v-121c0-31-8-49-39-48C34-167 62-67 57 0H25l-1-190h30c1 10-1 24 2 32 11-22 29-35 61-36" id="I"/><g id="b"><use transform="matrix(0.06172839506172839,0,0,0.06172839506172839,0,0)" xlink:href="#A"/><use transform="matrix(0.06172839506172839,0,0,0.06172839506172839,14.814814814814813,0)" xlink:href="#B"/><use transform="matrix(0.06172839506172839,0,0,0.06172839506172839,27.160493827160494,0)" xlink:href="#C"/><use transform="matrix(0.06172839506172839,0,0,0.06172839506172839,39.50617283950617,0)" xlink:href="#x"/><use transform="matrix(0.06172839506172839,0,0,0.06172839506172839,50.61728395061728,0)" xlink:href="#D"/><use transform="matrix(0.06172839506172839,0,0,0.06172839506172839,61.72839506172839,0)" xlink:href="#E"/><use transform="matrix(0.06172839506172839,0,0,0.06172839506172839,69.07407407407408,0)" xlink:href="#F"/><use transform="matrix(0.06172839506172839,0,0,0.06172839506172839,73.95061728395062,0)" xlink:href="#G"/><use transform="matrix(0.06172839506172839,0,0,0.06172839506172839,86.2962962962963,0)" xlink:href="#z"/><use transform="matrix(0.06172839506172839,0,0,0.06172839506172839,92.46913580246914,0)" xlink:href="#F"/><use transform="matrix(0.06172839506172839,0,0,0.06172839506172839,97.34567901234568,0)" xlink:href="#H"/><use transform="matrix(0.06172839506172839,0,0,0.06172839506172839,109.69135802469137,0)" xlink:href="#I"/></g><path fill="#3a414a" d="M232-93c-1 65-40 97-104 97C67 4 28-28 28-90v-158h33c8 89-33 224 67 224 102 0 64-133 71-224h33v155" id="J"/><g id="c"><use transform="matrix(0.06172839506172839,0,0,0.06172839506172839,0,0)" xlink:href="#J"/><use transform="matrix(0.06172839506172839,0,0,0.06172839506172839,15.987654320987653,0)" xlink:href="#x"/><use transform="matrix(0.06172839506172839,0,0,0.06172839506172839,27.098765432098766,0)" xlink:href="#y"/><use transform="matrix(0.06172839506172839,0,0,0.06172839506172839,39.44444444444444,0)" xlink:href="#E"/></g><path fill="#3a414a" d="M212-179c-10-28-35-45-73-45-59 0-87 40-87 99 0 60 29 101 89 101 43 0 62-24 78-52l27 14C228-24 195 4 139 4 59 4 22-46 18-125c-6-104 99-153 187-111 19 9 31 26 39 46" id="K"/><g id="d"><use transform="matrix(0.06172839506172839,0,0,0.06172839506172839,0,0)" xlink:href="#K"/><use transform="matrix(0.06172839506172839,0,0,0.06172839506172839,15.987654320987653,0)" xlink:href="#H"/><use transform="matrix(0.06172839506172839,0,0,0.06172839506172839,28.333333333333332,0)" xlink:href="#I"/><use transform="matrix(0.06172839506172839,0,0,0.06172839506172839,40.67901234567901,0)" xlink:href="#D"/><use transform="matrix(0.06172839506172839,0,0,0.06172839506172839,51.79012345679013,0)" xlink:href="#y"/><use transform="matrix(0.06172839506172839,0,0,0.06172839506172839,64.13580246913581,0)" xlink:href="#E"/><use transform="matrix(0.06172839506172839,0,0,0.06172839506172839,71.4814814814815,0)" xlink:href="#z"/><use transform="matrix(0.06172839506172839,0,0,0.06172839506172839,77.65432098765433,0)" xlink:href="#H"/></g><g id="e"><use transform="matrix(0.06172839506172839,0,0,0.06172839506172839,0,0)" xlink:href="#A"/><use transform="matrix(0.06172839506172839,0,0,0.06172839506172839,14.814814814814813,0)" xlink:href="#y"/><use transform="matrix(0.06172839506172839,0,0,0.06172839506172839,27.160493827160494,0)" xlink:href="#D"/><use transform="matrix(0.06172839506172839,0,0,0.06172839506172839,38.27160493827161,0)" xlink:href="#E"/><use transform="matrix(0.06172839506172839,0,0,0.06172839506172839,45.617283950617285,0)" xlink:href="#y"/><use transform="matrix(0.06172839506172839,0,0,0.06172839506172839,57.96296296296296,0)" xlink:href="#z"/><use transform="matrix(0.06172839506172839,0,0,0.06172839506172839,64.1358024691358,0)" xlink:href="#x"/></g><g id="f"><use transform="matrix(0.06172839506172839,0,0,0.06172839506172839,0,0)" xlink:href="#K"/><use transform="matrix(0.06172839506172839,0,0,0.06172839506172839,15.987654320987653,0)" xlink:href="#H"/><use transform="matrix(0.06172839506172839,0,0,0.06172839506172839,28.333333333333332,0)" xlink:href="#I"/><use transform="matrix(0.06172839506172839,0,0,0.06172839506172839,40.67901234567901,0)" xlink:href="#D"/><use transform="matrix(0.06172839506172839,0,0,0.06172839506172839,51.79012345679013,0)" xlink:href="#y"/><use transform="matrix(0.06172839506172839,0,0,0.06172839506172839,64.13580246913581,0)" xlink:href="#E"/><use transform="matrix(0.06172839506172839,0,0,0.06172839506172839,71.4814814814815,0)" xlink:href="#z"/><use transform="matrix(0.06172839506172839,0,0,0.06172839506172839,77.65432098765433,0)" xlink:href="#H"/></g><path fill="#3a414a" d="M63-220v92h138v28H63V0H30v-248h175v28H63" id="L"/><path fill="#3a414a" d="M85-194c31 0 48 13 60 33l-1-100h32l1 261h-30c-2-10 0-23-3-31C134-8 116 4 85 4 32 4 16-35 15-94c0-66 23-100 70-100zm9 24c-40 0-46 34-46 75 0 40 6 74 45 74 42 0 51-32 51-76 0-42-9-74-50-73" id="M"/><path fill="#3a414a" d="M141-36C126-15 110 5 73 4 37 3 15-17 15-53c-1-64 63-63 125-63 3-35-9-54-41-54-24 1-41 7-42 31l-33-3c5-37 33-52 76-52 45 0 72 20 72 64v82c-1 20 7 32 28 27v20c-31 9-61-2-59-35zM48-53c0 20 12 33 32 33 41-3 63-29 60-74-43 2-92-5-92 41" id="N"/><g id="g"><use transform="matrix(0.06172839506172839,0,0,0.06172839506172839,0,0)" xlink:href="#L"/><use transform="matrix(0.06172839506172839,0,0,0.06172839506172839,13.518518518518517,0)" xlink:href="#y"/><use transform="matrix(0.06172839506172839,0,0,0.06172839506172839,25.864197530864196,0)" xlink:href="#M"/><use transform="matrix(0.06172839506172839,0,0,0.06172839506172839,38.20987654320987,0)" xlink:href="#y"/><use transform="matrix(0.06172839506172839,0,0,0.06172839506172839,50.55555555555555,0)" xlink:href="#E"/><use transform="matrix(0.06172839506172839,0,0,0.06172839506172839,57.90123456790123,0)" xlink:href="#N"/><use transform="matrix(0.06172839506172839,0,0,0.06172839506172839,70.24691358024691,0)" xlink:href="#z"/><use transform="matrix(0.06172839506172839,0,0,0.06172839506172839,76.41975308641975,0)" xlink:href="#y"/><use transform="matrix(0.06172839506172839,0,0,0.06172839506172839,88.76543209876543,0)" xlink:href="#M"/></g><linearGradient gradientUnits="userSpaceOnUse" id="h" x1="324.5" y1="-732" x2="433" y2="-840.5"><stop offset="0%" stop-color="#c8511b"/><stop offset="100%" stop-color="#f90"/></linearGradient><path d="M205 0l-28-72H64L36 0H1l101-248h38L239 0h-34zm-38-99l-47-123c-12 45-31 82-46 123h93" id="O"/><path d="M135-143c-3-34-86-38-87 0 15 53 115 12 119 90S17 21 10-45l28-5c4 36 97 45 98 0-10-56-113-15-118-90-4-57 82-63 122-42 12 7 21 19 24 35" id="P"/><path d="M100-194c63 0 86 42 84 106H49c0 40 14 67 53 68 26 1 43-12 49-29l28 8c-11 28-37 45-77 45C44 4 14-33 15-96c1-61 26-98 85-98zm52 81c6-60-76-77-97-28-3 7-6 17-6 28h103" id="Q"/><path d="M59-47c-2 24 18 29 38 22v24C64 9 27 4 27-40v-127H5v-23h24l9-43h21v43h35v23H59v120" id="R"/><g id="i"><use transform="matrix(0.05,0,0,0.05,0,0)" xlink:href="#O"/><use transform="matrix(0.05,0,0,0.05,12,0)" xlink:href="#P"/><use transform="matrix(0.05,0,0,0.05,21,0)" xlink:href="#P"/><use transform="matrix(0.05,0,0,0.05,30,0)" xlink:href="#Q"/><use transform="matrix(0.05,0,0,0.05,40,0)" xlink:href="#R"/></g><path d="M185-189c-5-48-123-54-124 2 14 75 158 14 163 119 3 78-121 87-175 55-17-10-28-26-33-46l33-7c5 56 141 63 141-1 0-78-155-14-162-118-5-82 145-84 179-34 5 7 8 16 11 25" id="S"/><path d="M84 4C-5 8 30-112 23-190h32v120c0 31 7 50 39 49 72-2 45-101 50-169h31l1 190h-30c-1-10 1-25-2-33-11 22-28 36-60 37" id="T"/><path d="M115-194c53 0 69 39 70 98 0 66-23 100-70 100C84 3 66-7 56-30L54 0H23l1-261h32v101c10-23 28-34 59-34zm-8 174c40 0 45-34 45-75 0-40-5-75-45-74-42 0-51 32-51 76 0 43 10 73 51 73" id="U"/><path d="M96-169c-40 0-48 33-48 73s9 75 48 75c24 0 41-14 43-38l32 2c-6 37-31 61-74 61-59 0-76-41-82-99-10-93 101-131 147-64 4 7 5 14 7 22l-32 3c-4-21-16-35-41-35" id="V"/><path d="M114-163C36-179 61-72 57 0H25l-1-190h30c1 12-1 29 2 39 6-27 23-49 58-41v29" id="W"/><path d="M24-231v-30h32v30H24zM24 0v-190h32V0H24" id="X"/><path d="M115-194c55 1 70 41 70 98S169 2 115 4C84 4 66-9 55-30l1 105H24l-1-265h31l2 30c10-21 28-34 59-34zm-8 174c40 0 45-34 45-75s-6-73-45-74c-42 0-51 32-51 76 0 43 10 73 51 73" id="Y"/><path d="M100-194c62-1 85 37 85 99 1 63-27 99-86 99S16-35 15-95c0-66 28-99 85-99zM99-20c44 1 53-31 53-75 0-43-8-75-51-75s-53 32-53 75 10 74 51 75" id="Z"/><path d="M117-194c89-4 53 116 60 194h-32v-121c0-31-8-49-39-48C34-167 62-67 57 0H25l-1-190h30c1 10-1 24 2 32 11-22 29-35 61-36" id="aa"/><g id="j"><use transform="matrix(0.05,0,0,0.05,0,0)" xlink:href="#S"/><use transform="matrix(0.05,0,0,0.05,12,0)" xlink:href="#T"/><use transform="matrix(0.05,0,0,0.05,22,0)" xlink:href="#U"/><use transform="matrix(0.05,0,0,0.05,32,0)" xlink:href="#P"/><use transform="matrix(0.05,0,0,0.05,41,0)" xlink:href="#V"/><use transform="matrix(0.05,0,0,0.05,50,0)" xlink:href="#W"/><use transform="matrix(0.05,0,0,0.05,55.95,0)" xlink:href="#X"/><use transform="matrix(0.05,0,0,0.05,59.900000000000006,0)" xlink:href="#Y"/><use transform="matrix(0.05,0,0,0.05,69.9,0)" xlink:href="#R"/><use transform="matrix(0.05,0,0,0.05,74.9,0)" xlink:href="#X"/><use transform="matrix(0.05,0,0,0.05,78.85000000000001,0)" xlink:href="#Z"/><use transform="matrix(0.05,0,0,0.05,88.85000000000001,0)" xlink:href="#aa"/></g><path d="M240 0l2-218c-23 76-54 145-80 218h-23L58-218 59 0H30v-248h44l77 211c21-75 51-140 76-211h43V0h-30" id="ab"/><path d="M141-36C126-15 110 5 73 4 37 3 15-17 15-53c-1-64 63-63 125-63 3-35-9-54-41-54-24 1-41 7-42 31l-33-3c5-37 33-52 76-52 45 0 72 20 72 64v82c-1 20 7 32 28 27v20c-31 9-61-2-59-35zM48-53c0 20 12 33 32 33 41-3 63-29 60-74-43 2-92-5-92 41" id="ac"/><path d="M177-190C167-65 218 103 67 71c-23-6-38-20-44-43l32-5c15 47 100 32 89-28v-30C133-14 115 1 83 1 29 1 15-40 15-95c0-56 16-97 71-98 29-1 48 16 59 35 1-10 0-23 2-32h30zM94-22c36 0 50-32 50-73 0-42-14-75-50-75-39 0-46 34-46 75s6 73 46 73" id="ad"/><g id="k"><use transform="matrix(0.05,0,0,0.05,0,0)" xlink:href="#ab"/><use transform="matrix(0.05,0,0,0.05,14.950000000000001,0)" xlink:href="#ac"/><use transform="matrix(0.05,0,0,0.05,24.950000000000003,0)" xlink:href="#ac"/><use transform="matrix(0.05,0,0,0.05,34.95,0)" xlink:href="#aa"/><use transform="matrix(0.05,0,0,0.05,44.95,0)" xlink:href="#ad"/><use transform="matrix(0.05,0,0,0.05,54.95,0)" xlink:href="#Q"/><use transform="matrix(0.05,0,0,0.05,64.95,0)" xlink:href="#W"/></g><linearGradient gradientUnits="userSpaceOnUse" id="l" x1="328.5" y1="-1022.5" x2="433.5" y2="-1122.5"><stop offset="0%" stop-color="#c8511b"/><stop offset="100%" stop-color="#f90"/></linearGradient><path d="M30-248c87 1 191-15 191 75 0 78-77 80-158 76V0H30v-248zm33 125c57 0 124 11 124-50 0-59-68-47-124-48v98" id="ae"/><g id="m"><use transform="matrix(0.05,0,0,0.05,0,0)" xlink:href="#ae"/><use transform="matrix(0.05,0,0,0.05,12,0)" xlink:href="#W"/><use transform="matrix(0.05,0,0,0.05,17.95,0)" xlink:href="#Z"/><use transform="matrix(0.05,0,0,0.05,27.950000000000003,0)" xlink:href="#V"/><use transform="matrix(0.05,0,0,0.05,36.95,0)" xlink:href="#Q"/><use transform="matrix(0.05,0,0,0.05,46.95,0)" xlink:href="#P"/><use transform="matrix(0.05,0,0,0.05,55.95,0)" xlink:href="#P"/><use transform="matrix(0.05,0,0,0.05,64.95,0)" xlink:href="#Z"/><use transform="matrix(0.05,0,0,0.05,74.95,0)" xlink:href="#W"/></g><linearGradient gradientUnits="userSpaceOnUse" id="n" x1="862.75" y1="-474.75" x2="971.25" y2="-574.75"><stop offset="0%" stop-color="#c8511b"/><stop offset="100%" stop-color="#f90"/></linearGradient><path d="M212-179c-10-28-35-45-73-45-59 0-87 40-87 99 0 60 29 101 89 101 43 0 62-24 78-52l27 14C228-24 195 4 139 4 59 4 22-46 18-125c-6-104 99-153 187-111 19 9 31 26 39 46" id="af"/><g id="o"><use transform="matrix(0.05,0,0,0.05,0,0)" xlink:href="#af"/><use transform="matrix(0.05,0,0,0.05,12.950000000000001,0)" xlink:href="#Z"/><use transform="matrix(0.05,0,0,0.05,22.950000000000003,0)" xlink:href="#aa"/><use transform="matrix(0.05,0,0,0.05,32.95,0)" xlink:href="#V"/><use transform="matrix(0.05,0,0,0.05,41.95,0)" xlink:href="#Q"/><use transform="matrix(0.05,0,0,0.05,51.95,0)" xlink:href="#W"/><use transform="matrix(0.05,0,0,0.05,57.900000000000006,0)" xlink:href="#R"/><use transform="matrix(0.05,0,0,0.05,62.900000000000006,0)" xlink:href="#Z"/></g><path d="M127-220V0H93v-220H8v-28h204v28h-85" id="ag"/><path d="M143 0L79-87 56-68V0H24v-261h32v163l83-92h37l-77 82L181 0h-38" id="ah"/><g id="p"><use transform="matrix(0.05,0,0,0.05,0,0)" xlink:href="#ag"/><use transform="matrix(0.05,0,0,0.05,8.950000000000001,0)" xlink:href="#Z"/><use transform="matrix(0.05,0,0,0.05,18.950000000000003,0)" xlink:href="#ah"/><use transform="matrix(0.05,0,0,0.05,27.950000000000003,0)" xlink:href="#Q"/><use transform="matrix(0.05,0,0,0.05,37.95,0)" xlink:href="#aa"/></g><path d="M233-177c-1 41-23 64-60 70L243 0h-38l-65-103H63V0H30v-248c88 3 205-21 203 71zM63-129c60-2 137 13 137-47 0-61-80-42-137-45v92" id="ai"/><g id="q"><use transform="matrix(0.05,0,0,0.05,0,0)" xlink:href="#ai"/><use transform="matrix(0.05,0,0,0.05,12.950000000000001,0)" xlink:href="#Z"/><use transform="matrix(0.05,0,0,0.05,22.950000000000003,0)" xlink:href="#R"/><use transform="matrix(0.05,0,0,0.05,27.950000000000003,0)" xlink:href="#ac"/><use transform="matrix(0.05,0,0,0.05,37.95,0)" xlink:href="#R"/><use transform="matrix(0.05,0,0,0.05,42.95,0)" xlink:href="#X"/><use transform="matrix(0.05,0,0,0.05,46.900000000000006,0)" xlink:href="#Z"/><use transform="matrix(0.05,0,0,0.05,56.900000000000006,0)" xlink:href="#aa"/></g><linearGradient gradientUnits="userSpaceOnUse" id="r" x1="619.5" y1="-1022.5" x2="728" y2="-1126.75"><stop offset="0%" stop-color="#b0084d"/><stop offset="100%" stop-color="#ff4f8b"/></linearGradient><path d="M210-169c-67 3-38 105-44 169h-31v-121c0-29-5-50-35-48C34-165 62-65 56 0H25l-1-190h30c1 10-1 24 2 32 10-44 99-50 107 0 11-21 27-35 58-36 85-2 47 119 55 194h-31v-121c0-29-5-49-35-48" id="aj"/><path d="M9 0v-24l116-142H16v-24h144v24L44-24h123V0H9" id="ak"/><g id="s"><use transform="matrix(0.05,0,0,0.05,0,0)" xlink:href="#O"/><use transform="matrix(0.05,0,0,0.05,12,0)" xlink:href="#aj"/><use transform="matrix(0.05,0,0,0.05,26.950000000000003,0)" xlink:href="#ac"/><use transform="matrix(0.05,0,0,0.05,36.95,0)" xlink:href="#ak"/><use transform="matrix(0.05,0,0,0.05,45.95,0)" xlink:href="#Z"/><use transform="matrix(0.05,0,0,0.05,55.95,0)" xlink:href="#aa"/></g><path d="M24 0v-261h32V0H24" id="al"/><g id="t"><use transform="matrix(0.05,0,0,0.05,0,0)" xlink:href="#S"/><use transform="matrix(0.05,0,0,0.05,12,0)" xlink:href="#X"/><use transform="matrix(0.05,0,0,0.05,15.949999999999998,0)" xlink:href="#aj"/><use transform="matrix(0.05,0,0,0.05,30.899999999999995,0)" xlink:href="#Y"/><use transform="matrix(0.05,0,0,0.05,40.9,0)" xlink:href="#al"/><use transform="matrix(0.05,0,0,0.05,44.85,0)" xlink:href="#Q"/></g><path d="M140-251c81 0 123 46 123 126C263-53 228-8 163 1c7 30 30 48 69 40v23c-55 16-95-15-103-61C56-3 17-48 17-125c0-80 42-126 123-126zm0 227c63 0 89-41 89-101s-29-99-89-99c-61 0-89 39-89 99S79-25 140-24" id="am"/><g id="u"><use transform="matrix(0.05,0,0,0.05,0,0)" xlink:href="#am"/><use transform="matrix(0.05,0,0,0.05,14,0)" xlink:href="#T"/><use transform="matrix(0.05,0,0,0.05,24,0)" xlink:href="#Q"/><use transform="matrix(0.05,0,0,0.05,34,0)" xlink:href="#T"/><use transform="matrix(0.05,0,0,0.05,44,0)" xlink:href="#Q"/></g><path d="M108 0H70L1-190h34L89-25l56-165h34" id="an"/><g id="v"><use transform="matrix(0.05,0,0,0.05,0,0)" xlink:href="#S"/><use transform="matrix(0.05,0,0,0.05,12,0)" xlink:href="#Q"/><use transform="matrix(0.05,0,0,0.05,22,0)" xlink:href="#W"/><use transform="matrix(0.05,0,0,0.05,27.950000000000003,0)" xlink:href="#an"/><use transform="matrix(0.05,0,0,0.05,36.95,0)" xlink:href="#X"/><use transform="matrix(0.05,0,0,0.05,40.900000000000006,0)" xlink:href="#V"/><use transform="matrix(0.05,0,0,0.05,49.900000000000006,0)" xlink:href="#Q"/></g></defs></g></svg>